<svg xmlns="http://www.w3.org/2000/svg" xmlns:xlink="http://www.w3.org/1999/xlink" fill="none" version="1.1" width="1024" height="1024" viewBox="0 0 1024 1024"><defs><clipPath id="master_svg0_145_29064"><rect x="0" y="0" width="1024" height="1024" rx="192"/></clipPath><clipPath id="master_svg1_145_29067"><rect x="191" y="81" width="642" height="861.9312133789062" rx="0"/></clipPath></defs><g clip-path="url(#master_svg0_145_29064)"><rect x="0" y="0" width="1024" height="1024" rx="192" fill="#FCFAF8" fill-opacity="1"/><g clip-path="url(#master_svg1_145_29067)"><path d="M495.2844617351198,922.9861783496094C663.2927917351199,922.9861783496094,799.4904617351198,791.1350683496094,799.4904617351198,628.4886183496094C799.4904617351198,465.8420983496094,663.2927917351199,333.9910583496094,495.2844617351198,333.9910583496094C327.2761517351198,333.9910583496094,191.07847173511982,465.8420983496094,191.07847173511982,628.4886183496094C191.07847173511982,791.1350683496094,327.2761517351198,922.9861783496094,495.2844617351198,922.9861783496094ZM495.28584173511985,796.3202783496095C591.0325417351198,796.3202783496095,668.6505817351199,721.1793783496094,668.6505817351199,628.4883683496093C668.6505817351199,535.7973483496094,591.0325417351198,460.65642834960937,495.28584173511985,460.65642834960937C399.53915173511984,460.65642834960937,321.9211517351198,535.7973483496094,321.9211517351198,628.4883683496093C321.9211517351198,721.1793783496094,399.53915173511984,796.3202783496095,495.28584173511985,796.3202783496095Z" fill-rule="evenodd" fill="#000000" fill-opacity="1"/><path d="M485.0743194589844,251.25908713623048C492.3848264589844,258.3831971362305,501.07937645898437,263.98323713623046,511.15793645898435,268.0592471362305C521.2364884589844,272.1352171362305,532.1667634589844,274.19093713623045,543.9487534589844,274.19093713623045C555.7307514589844,274.19093713623045,566.9449454589844,272.09975713623044,576.9879954589844,267.95290713623046C587.0665554589843,263.77058713623046,595.7966154589844,258.09966713623044,603.2135654589844,250.86922713623048C610.6305254589844,243.63878713623046,616.4150654589844,235.23872713623047,620.6026354589844,225.66901713623048C624.7902354589844,216.09930713623046,626.8485454589844,205.7853011362305,626.8485454589844,194.79787413623046L626.8485454589844,194.23078113623046C626.8485454589844,183.24334713623045,624.7547654589844,172.92934413623047,620.6026354589844,163.35964213623046C616.4150654589844,153.75450113623046,610.6660354589844,145.42531813623046,603.3555254589844,138.30120813623046C596.0450154589844,131.17710013623048,587.3504554589844,125.57705613623047,577.2719154589844,121.50107333623046C567.1933554589843,117.42509053623047,556.2630694589843,115.36937713623047,544.4810794589844,115.36937713623047C532.6991044589844,115.36937713623047,521.4848974589844,117.46053333623047,511.4063494589844,121.60740323623047C501.3277894589844,125.78971613623047,492.5977384589844,131.46064713623048,485.1807764589844,138.69108913623046C477.76381845898436,145.92152813623048,471.9792704589844,154.28614813623045,467.7916941589844,163.89129613623047C463.6041195589844,173.46099813623047,461.5103454589844,183.77500913623047,461.5103454589844,194.76244313623047L461.5103454589844,195.32952913623046C461.5103454589844,206.35240913623045,463.6041195589844,216.63096713623048,467.7916941589844,226.23611713623046C471.9792704589844,235.80582713623045,477.7283234589844,244.17046713623046,485.0388264589844,251.25909713623048L485.0743194589844,251.25908713623048Z" fill="#FF9D4D" fill-opacity="1" style="mix-blend-mode:passthrough" transform="matrix(0.9901291728019714,-0.14083673059940338,0.14062289893627167,0.9899662137031555,-11.668087391240647,66.15519986762956)"/><path d="M270.4956069135742,294.62703757568363C277.8045499135742,301.7511475756836,286.4972269135742,307.3512075756836,296.5736309135742,311.42719757568364C306.6500319135742,315.5031675756836,317.5779649135742,317.55888757568357,329.3574299135742,317.55888757568357C341.1368939135742,317.55888757568357,352.34865891357424,315.46770757568356,362.3895789135742,311.2853775756836C372.4659889135742,307.1030975756836,381.1941289135742,301.4321675756836,388.6095189135742,294.2017175756836C396.0249089135742,286.9712775756836,401.8082089135742,278.6066575756836,405.9948789135742,269.0015075756836C410.18153891357423,259.4318075756836,412.2749089135742,249.11780557568358,412.2749089135742,238.1303715756836L412.2749089135742,237.5632855756836C412.2749089135742,226.5758665756836,410.18153891357423,216.2972905756836,405.9948789135742,206.69214657568358C401.8082089135742,197.08700557568358,396.06038891357423,188.7578235756836,388.7514289135742,181.6691565756836C381.4425089135742,174.5450505756836,372.74981891357425,168.9450035756836,362.6734289135742,164.8690218756836C352.5970289135742,160.79304027568358,341.6691059135742,158.7373275756836,329.8896409135742,158.7373275756836C318.1101689135742,158.7373275756836,306.8984029135742,160.8284842756836,296.82199891357425,165.0107989756836C286.7455939135742,169.1931115756836,278.0174349135742,174.8640465756836,270.60205691357424,182.0944805756836C263.1866739135742,189.3249265756836,257.4033859135742,197.7249905756836,253.2167120135742,207.2946925756836C249.0300355135742,216.8643955756836,246.93669891357422,227.17839057568358,246.93669891357422,238.1658245756836L246.93669891357422,238.7329175756836C246.93669891357422,249.7557985756836,249.0300355135742,260.0343575756836,253.2167120135742,269.6395075756836C257.4033879135742,279.2092075756836,263.1511959135742,287.5738275756836,270.4601399135742,294.6979475756836L270.4956069135742,294.62703757568363Z" fill="#FF9D4D" fill-opacity="1" style="mix-blend-mode:passthrough" transform="matrix(0.9901291728019714,-0.14083673059940338,0.14062289893627167,0.9899662137031555,-19.884633689261705,36.370493762223646)"/><path d="M662.8142430761719,376.5480241113281C670.1269230761719,383.67155411132813,678.8240430761718,389.2711441113281,688.9056590761719,393.34678411132813C698.9872130761719,397.4224041113281,709.9207530761719,399.47795411132813,721.7062830761719,399.47795411132813C733.4918140761719,399.47795411132813,744.7092980761719,397.38697411132813,754.7553880761718,393.2050141113281C764.8369280761718,389.0230441113281,773.5696080761719,383.35258411132816,780.9887680761719,376.12271411132815C788.4079280761719,368.89289411132813,794.1942180761719,360.5289341113281,798.3829980761718,350.92459411132813C802.5717880761719,341.35567411132814,804.6307380761718,331.0425111113281,804.6307380761718,320.05598411132814L804.6307380761718,319.4889451113281C804.6307380761718,308.50242611132813,802.5363180761719,298.2246971113281,798.3829980761718,288.6203421113281C794.1942180761719,279.01599511132815,788.4433880761719,270.68749211132814,781.1307180761719,263.5994111113281C773.8180580761718,256.4758871113281,765.1209280761718,250.87630211132813,755.0393280761718,246.80065441132814C744.9577480761719,242.72500801132813,734.0242160761719,240.66946411132812,722.2742230761719,240.66946411132812C710.5242230761719,240.66946411132812,699.2712130761719,242.76044941132812,689.1896550761719,246.94241951132813C679.1080970761718,251.12439011132813,670.3754390761719,256.79486111132815,662.9562680761719,264.0247001113281C655.5370960761719,271.2545531113281,649.7508230761719,279.65392311132814,645.5619992761718,289.2228471113281C641.3731760761718,298.79175911132813,639.2787780761719,309.1049191113281,639.2787780761719,320.09144611132814L639.2787780761719,320.6584851113281C639.2787780761719,331.6804501113281,641.3731760761718,341.95816411132813,645.5619992761718,351.5625341113281C649.7508230761719,361.1314441113281,655.5015890761719,369.4953941113281,662.8142700761719,376.61891411132814L662.8142430761719,376.5480241113281Z" fill="#FF9D4D" fill-opacity="1" style="mix-blend-mode:passthrough" transform="matrix(0.8998494148254395,-0.43620070815086365,0.43569377064704895,0.9000949859619141,-40.834042584262534,302.89794189322583)"/><rect x="673.8394470214844" y="638.4157104492188" width="125.65031433105469" height="284.5706787109375" rx="0" fill="#000000" fill-opacity="1"/></g></g></svg>